<svg width="32" height="33" viewBox="0 0 32 33" fill="none" xmlns="http://www.w3.org/2000/svg">
<path d="M32 16.5C32 25.3366 24.8366 32.5 16 32.5C7.16344 32.5 0 25.3366 0 16.5C0 7.66344 7.16344 0.5 16 0.5C24.8366 0.5 32 7.66344 32 16.5Z" fill="#313E62"/>
<path d="M16 17.625C17.3427 17.625 18.6303 17.0916 19.5797 16.1422C20.5291 15.1928 21.0625 13.9052 21.0625 12.5625C21.0625 11.2198 20.5291 9.93217 19.5797 8.98277C18.6303 8.03337 17.3427 7.5 16 7.5C14.6573 7.5 13.3697 8.03337 12.4203 8.98277C11.4709 9.93217 10.9375 11.2198 10.9375 12.5625C10.9375 13.9052 11.4709 15.1928 12.4203 16.1422C13.3697 17.0916 14.6573 17.625 16 17.625ZM12.6707 18.75C9.53828 18.75 7 21.2883 7 24.4207C7 25.0184 7.48516 25.5 8.0793 25.5H23.9207C24.5184 25.5 25 25.0148 25 24.4207C25 21.2883 22.4617 18.75 19.3293 18.75H12.6707Z" fill="white"/>
</svg>
